<?xml version="1.0" standalone="no"?>
<!DOCTYPE svg PUBLIC "-//W3C//DTD SVG 20010904//EN"
 "http://www.w3.org/TR/2001/REC-SVG-20010904/DTD/svg10.dtd">
<svg version="1.0" xmlns="http://www.w3.org/2000/svg"
 width="512.000000pt" height="512.000000pt" viewBox="0 0 512.000000 512.000000"
 preserveAspectRatio="xMidYMid meet">

<g transform="translate(0.000000,512.000000) scale(0.100000,-0.100000)"
fill="#000000" stroke="none">
<path d="M2375 4713 c-605 -52 -1172 -368 -1538 -855 -218 -290 -357 -625
-413 -993 -20 -135 -23 -431 -5 -565 89 -670 469 -1250 1043 -1592 334 -199
700 -298 1098 -298 595 0 1137 230 1551 657 533 550 734 1351 523 2087 -268
934 -1128 1577 -2093 1564 -69 -1 -144 -3 -166 -5z m392 -1327 l28 -24 0 -837
0 -837 -28 -24 c-28 -24 -76 -31 -111 -18 -9 3 -59 61 -111 129 -157 202 -370
391 -517 460 -68 32 -159 33 -238 4 -96 -36 -106 -36 -119 3 -30 93 -40 312
-21 467 11 80 31 141 49 141 4 0 34 -10 67 -22 43 -15 83 -21 149 -22 85 -1
94 1 160 37 167 89 360 267 494 456 39 54 76 102 83 104 35 14 88 6 115 -17z
m398 -406 c30 -30 45 -53 40 -58 -36 -32 -312 -260 -322 -266 -10 -5 -13 15
-13 91 l1 98 117 92 c64 50 119 92 122 92 3 1 28 -21 55 -49z m95 -495 l0 -75
-195 0 -195 0 0 75 0 75 195 0 195 0 0 -75z m-167 -339 c64 -54 117 -101 117
-105 0 -17 -90 -93 -103 -88 -8 3 -65 45 -126 93 l-111 87 0 100 0 99 53 -44
c28 -24 105 -88 170 -142z"/>
</g>
</svg>
